<?xml version="1.0" encoding="iso-8859-1"?>
<!-- Generator: Adobe Illustrator 19.0.0, SVG Export Plug-In . SVG Version: 6.00 Build 0)  -->
<svg xmlns="http://www.w3.org/2000/svg" xmlns:xlink="http://www.w3.org/1999/xlink" version="1.1" id="Layer_1" x="0px" y="0px" viewBox="0 0 485 485" style="enable-background:new 0 0 485 485;" xml:space="preserve" width="512px" height="512px">
<g>
	<path d="M129.67,383.36c0.652,7.199,3.658,12.842,10.757,15.536c6.754,2.556,15.671,0.548,20.237-4.724   c14.428-16.659,28.752-33.396,43.122-50.121c12.047-14.022,24.117-28.022,36.109-42.088c1.93-2.266,4.061-3.153,7.044-3.13   c15.887,0.123,31.77,0.123,47.654,0.034c14-0.092,22.537-6.396,26.845-19.666c0.896-2.771,1.591-5.632,2.197-8.492   c9.368-44.983,18.735-89.978,28.022-134.983c2.088-10.106,4.69-20.137,3.4-30.659c-1.134-9.141-6.306-15.783-15.111-18.442   c-2.289-0.695-4.655-1.097-6.99-1.625H154.82c-3.501,0.999-7.156,1.502-10.41,3.297c-10.163,5.577-14.784,14.427-14.784,25.756   c-0.046,88.622-0.023,177.241-0.023,265.86C129.603,381.06,129.569,382.214,129.67,383.36z M164.837,131.218   c0-8.233,2.829-11.039,11.128-11.039c43.693,0,87.399,0,131.081,0c8.121,0,11.51,3.96,9.939,11.981   c-2.211,11.274-4.589,22.526-6.99,33.766c-1.177,5.474-4.555,8.063-10.287,8.075c-20.596,0.023-41.189,0-61.774,0.012   c-10.637,0.011-16.053,5.407-16.065,15.964c-0.011,1.683-0.023,3.354,0,5.025c0.135,8.322,5.956,14.212,14.29,14.235   c17.67,0.055,35.337,0.031,53.004,0.012c2.223,0,4.411,0.144,6.306,1.456c3.107,2.154,4.115,5.272,3.42,8.807   c-2.435,12.406-4.948,24.804-7.561,37.164c-0.885,4.152-4.15,6.461-8.816,6.484c-11.387,0.046-22.785-0.035-34.179,0.046   c-5.43,0.032-10.861,0.258-16.277,0.482c-3.601,0.144-6.677,1.459-9.132,4.207c-7.326,8.176-13.876,16.995-20.763,25.519   c-11.892,14.718-23.66,29.527-35.472,44.299c-0.313,0.394-0.672,0.752-1.212,1.347c-0.942-1.413-0.629-2.593-0.629-3.69   C164.837,267.31,164.837,199.264,164.837,131.218z" fill="#FFFFFF"/>
	<path d="M0,0v485h485V0H0z M455,455H30V30h425V455z" fill="#FFFFFF"/>
</g>
<g>
</g>
<g>
</g>
<g>
</g>
<g>
</g>
<g>
</g>
<g>
</g>
<g>
</g>
<g>
</g>
<g>
</g>
<g>
</g>
<g>
</g>
<g>
</g>
<g>
</g>
<g>
</g>
<g>
</g>
</svg>
