<?xml version="1.0" encoding="utf-8"?>
<!DOCTYPE svg PUBLIC "-//W3C//DTD SVG 1.1//EN" "http://www.w3.org/Graphics/SVG/1.1/DTD/svg11.dtd">
<svg xmlns="http://www.w3.org/2000/svg" xmlns:xlink="http://www.w3.org/1999/xlink" version="1.1" viewBox="0 0 512 512" enable-background="new 0 0 512 512" width="512px" height="512px">
  <g>
    <g>
      <g>
        <g>
          <path d="m160.1,274.8c-43.8,0-80.3-35.4-80.3-80.3s35.4-80.3 80.3-80.3 80.3,35.4 80.3,80.3-35.5,80.3-80.3,80.3zm0-138.7c-32.3,0-59.4,26.1-59.4,59.4 0,32.3 26.1,59.4 59.4,59.4 32.3,0 59.4-26.1 59.4-59.4s-26.1-59.4-59.4-59.4z" fill="#c0a062"/>
        </g>
        <g>
          <path d="m319.6,231c-1,0-3.1,0-4.2-1-4.2-2.1-6.3-5.2-6.3-9.4v-37.6h-37.5c-6.3,0-10.4-4.2-10.4-10.4v-151.2c0-6.3 4.2-10.4 10.4-10.4h218.9c6.3,0 10.4,4.2 10.4,10.4v151.2c0,6.3-4.2,10.4-10.4,10.4h-118.8l-44.8,44.8c-2.1,2.1-5.2,3.2-7.3,3.2zm-37.5-68.8h37.5c6.3,0 10.4,4.2 10.4,10.4v22.9l30.2-30.2c2.1-2.1 4.2-3.1 7.3-3.1h112.6v-130.3h-198v130.3z" fill="#c0a062"/>
        </g>
        <g>
          <path d="m299.8,501h-278.4c-6.3,0-10.4-4.2-10.4-10.4v-123c0-33.4 27.1-61.5 61.5-61.5h46.9c3.1,0 5.2,1 7.3,3.1l34.4,34.4 34.4-34.4c2.1-2.1 4.2-3.1 7.3-3.1h46.9c33.4,0 61.5,27.1 61.5,61.5v123c-1,6.2-6.2,10.4-11.4,10.4zm-267.9-20.9h257.5v-112.5c0-21.9-17.7-40.7-40.7-40.7h-41.7l-38.6,38.6c-4.2,4.2-10.4,4.2-14.6,0l-38.6-38.6h-41.6c-21.9,0-40.7,17.7-40.7,40.7v112.6h-1z" fill="#c0a062"/>
        </g>
        <g>
          <g>
            <rect width="20.9" x="318.6" y="87.1" height="20.9" fill="#c0a062"/>
          </g>
          <g>
            <rect width="20.9" x="370.7" y="87.1" height="20.9" fill="#c0a062"/>
          </g>
          <g>
            <rect width="20.9" x="422.8" y="87.1" height="20.9" fill="#c0a062"/>
          </g>
        </g>
      </g>
    </g>
  </g>
</svg>
